{"title":"Godard - Breathless (1960) 720p","uid":5408148,"size":4696979086,"categoryP":"video","categoryS":"hd___movies","magnet":"?xt=urn:btih:3a5b91f84f58372b5d6f0b8947ce7863c47bb863&amp;dn=Godard+-+Breathless+%281960%29+720p&amp;tr=udp%3A%2F%2Ftracker.openbittorrent.com%3A80&amp;tr=udp%3A%2F%2Fopen.demonii.com%3A1337&amp;tr=udp%3A%2F%2Ftracker.coppersurfer.tk%3A6969&amp;tr=udp%3A%2F%2Fexodus.desync.com%3A6969","seeders":16,"leechers":3,"uploader":"mfccorrea","files":1,"time":1267667341,"description":"The first feature film directed by Jean-Luc Godard and one of the seminal films of the French New Wave, Breathless is story of the love between Michel Poiccard, a small-time hood wanted for killing a cop, and Patricia Franchini, an American who sells the International Herald Tribune along the boulevards of Paris. Their relationship develops as Michel hides out from a dragnet. Breathless uses the famous techniques of the French New Wave: location shooting, improvised dialogue, and a loose narrative form. In addition Godard uses his characteristic jump cuts, deliberate &quot;mismatches&quot; between shots, and references to the history of cinema, art, and music. Much of the film's vigor comes from collisions between popular and high culture: Godard shows us pinups and portraits of women by Picasso and Renoir, and the soundtrack includes both Mozart's clarinet concerto and snippets of French pop radio. When Breathless was first released, audiences and critics responded to the burst of energy it gave the French cinema; it won numerous international awards and became an unexpected box-office sensation.\n\n   General\n      Complete name : Breathless.1960.720p.mkv\n      Format : Matroska\n      File size : 4.37 GiB\n      Duration : 1h 30mn\n      Overall bit rate : 6 948 Kbps\n      Encoded date : UTC 2010-02-24 19:26:32\n      Writing application : mkvmerge v3.1.0 ('Happy up here') built on Jan 19 2010 12:09:24\n      Writing library : libebml v0.7.9 + libmatroska v0.8.1\n   Video #1\n      ID : 1\n      Format : AVC\n      Format/Info : Advanced Video Codec\n      Format profile : &lt;a class=&quot;__cf_email__&quot; href=&quot;/cdn-cgi/l/email-protection&quot; data-cfemail=&quot;743c1d131c3438405a45&quot;&gt;[email&amp;#160;protected]&lt;/a&gt;&lt;script cf-hash='f9e31' type=&quot;text/javascript&quot;&gt;\n/* &lt;![CDATA[ */!function(){try{var t=&quot;currentScript&quot;in document?document.currentScript:function(){for(var t=document.getElementsByTagName(&quot;script&quot;),e=t.length;e--;)if(t[e].getAttribute(&quot;cf-hash&quot;))return t[e]}();if(t&amp;&amp;t.previousSibling){var e,r,n,i,c=t.previousSibling,a=c.getAttribute(&quot;data-cfemail&quot;);if(a){for(e=&quot;&quot;,r=parseInt(a.substr(0,2),16),n=2;a.length-n;n+=2)i=parseInt(a.substr(n,2),16)^r,e+=String.fromCharCode(i);e=document.createTextNode(e),c.parentNode.replaceChild(e,c)}}}catch(u){}}();/* ]]&gt; */&lt;/script&gt;\n      Format settings, CABAC : Yes\n      Format settings, ReFrames : 5 frames\n      Muxing mode : Container profile=&lt;a class=&quot;__cf_email__&quot; href=&quot;/cdn-cgi/l/email-protection&quot; data-cfemail=&quot;11447f7a7f7e667f51253f20&quot;&gt;[email&amp;#160;protected]&lt;/a&gt;&lt;script cf-hash='f9e31' type=&quot;text/javascript&quot;&gt;\n/* &lt;![CDATA[ */!function(){try{var t=&quot;currentScript&quot;in document?document.currentScript:function(){for(var t=document.getElementsByTagName(&quot;script&quot;),e=t.length;e--;)if(t[e].getAttribute(&quot;cf-hash&quot;))return t[e]}();if(t&amp;&amp;t.previousSibling){var e,r,n,i,c=t.previousSibling,a=c.getAttribute(&quot;data-cfemail&quot;);if(a){for(e=&quot;&quot;,r=parseInt(a.substr(0,2),16),n=2;a.length-n;n+=2)i=parseInt(a.substr(n,2),16)^r,e+=String.fromCharCode(i);e=document.createTextNode(e),c.parentNode.replaceChild(e,c)}}}catch(u){}}();/* ]]&gt; */&lt;/script&gt;\n      Codec ID : V_MPEG4/ISO/AVC\n      Duration : 1h 30mn\n      Bit rate : 6 055 Kbps\n      Nominal bit rate : 6 175 Kbps\n      Width : 960 pixels\n      Height : 720 pixels\n      Display aspect ratio : 4:3\n      Frame rate : 24.000 fps\n      Resolution : 24 bits\n      Colorimetry : 4:2:0\n      Scan type : Progressive\n      Bits/(Pixel*Frame) : 0.365\n      Stream size : 3.81 GiB (87%)\n      Writing library : x264 core 85 r1442 781d300\n   Audio #2\n      ID : 2\n      Format : DTS\n      Format/Info : Digital Theater Systems\n      Codec ID : A_DTS\n      Duration : 1h 30mn\n      Bit rate mode : Constant\n      Bit rate : 755 Kbps\n      Channel(s) : 2 channels\n      Channel positions : L R\n      Sampling rate : 48.0 KHz\n      Resolution : 24 bits\n      Stream size : 486 MiB (11%)\n      Language : French\n   Text #3\n      ID : 3\n      Format : UTF-8\n      Codec ID : S_TEXT/UTF8\n      Codec ID/Info : UTF-8 Plain Text\n      Language : English\n\nIMDB: tt0053472\n\nFrench audio; English subtitle (in the mkv file, switchable)\n\nThis is the Cinefile release","torrent":{"xt":"urn:btih:3a5b91f84f58372b5d6f0b8947ce7863c47bb863","amp;dn":"Godard+-+Breathless+%281960%29+720p","amp;tr":["udp%3A%2F%2Ftracker.openbittorrent.com%3A80","udp%3A%2F%2Fopen.demonii.com%3A1337","udp%3A%2F%2Ftracker.coppersurfer.tk%3A6969","udp%3A%2F%2Fexodus.desync.com%3A6969"],"infoHash":"3a5b91f84f58372b5d6f0b8947ce7863c47bb863","infoHashBuffer":{"type":"Buffer","data":[58,91,145,248,79,88,55,43,93,111,11,137,71,206,120,99,196,123,184,99]},"announce":[],"urlList":[]}}